<?xml version="1.0" encoding="utf-8"?>
<!-- Generator: Adobe Illustrator 22.1.0, SVG Export Plug-In . SVG Version: 6.00 Build 0)  -->
<svg version="1.1" id="Layer_1" xmlns="http://www.w3.org/2000/svg" xmlns:xlink="http://www.w3.org/1999/xlink" x="0px" y="0px"
	 viewBox="0 0 450 450" style="enable-background:new 0 0 450 450;" xml:space="preserve">
<style type="text/css">
	.st0{fill:#414042;}
</style>
<g>
	<path class="st0" d="M243.9,216.9c-19.2-1.8-52-3.5-52-3.5l5.6-9.9c40.2,0,66.2,2.2,104.9,5.7c26.5,2.4,96.6,3.7,130.6-9.3l3,10.4
		c0,0-33.3,15.6-77.8,13.1c-44.5-2.5-50.1-3.1-50.1-3.1S257.5,218.2,243.9,216.9 M95.7,327.3c-46-1.5-81.4-10-81.4-10l-1.2-8.6
		c20.1,0,44.1,4.6,63.6,5.6c25,1.2,49.6-1.1,71.1-1.7c32.9-1,47.2,1.2,60.5,2c13.3,0.7,81.9,3,130.1-0.9c32.9-2.7,63.3-4.2,90.8-9.4
		l7,7.9c0,0-14.4,1.3-38.4,6.7c-54.1,12.4-103.7,13.5-118.5,14.5c-14.8,0.9-52-2.5-88.5-4.2C174.2,328.4,117.1,328,95.7,327.3
		 M117.9,256l5-11c20.1,4.3,38.2,11.7,57.4,12.4c25.8,0.9,48.8-0.6,76,0.5c27.2,1.1,149.6-5.5,179.7-0.2v7.1c0,0-39.3,3.4-66.2,2.7
		c-25.6-0.6-61,0.8-93.6,1.6c0,0-73.5-0.2-98.3-0.8C142.1,267.2,117.9,256,117.9,256 M369.6,174.8c-9.4-0.8-23.6-2.2-33.1-2.4
		c-9.5-0.2-22,2.5-22,2.5l-1.3-9.8c19.1-6.3,38.3-7.9,58.5-5.8c21.9,2.3,39,6.9,59.3,2.1l5,13.9c0,0-24.8,1.1-29.4,1.1
		C402,176.3,378.9,175.6,369.6,174.8 M398.9,129.9l-4.5-11.9c0,0,19,3.9,36.6-1.5l5,11.7C413.8,135.1,398.9,129.9,398.9,129.9"/>
</g>
</svg>
